# xmcd CD database file
#
# Track frame offsets:
#	150
#	6317
#	17351
#	30864
#	45011
#	56203
#	68612
#	78194
#	84554
#	96091
#	109207
#	122235
#	131939
#	146242
#	160626
#	181722
#
# Disc length: 2578 seconds
#
# Revision: 0
# Processed by: cddbd v1.5.2PL0 Copyright (c) Steve Scherf et al.
# Submitted via: CDex 1.70beta2
#
DISCID=c10a1010
DTITLE=Reverend'S Revenge - Ooh Wah Wah 
DYEAR=2008
DGENRE=Jazz
TTITLE0=The Catweazle
TTITLE1=Zen Dolphin
TTITLE2=Apache
TTITLE3=Rat Happy
TTITLE4=Tennesse
TTITLE5=Herb Alpert
TTITLE6=Skeleton Man
TTITLE7=Munster's Theme
TTITLE8=Mohawk
TTITLE9=Cannibal Girl
TTITLE10=The Loneliness Of The Prairie Dog
TTITLE11=Baby Elephant Walk
TTITLE12=The Archie
TTITLE13=El Pachuco
TTITLE14=Rob's Song
TTITLE15=Data
EXTD=YEAR: 2008
EXTT0=
EXTT1=
EXTT2=
EXTT3=
EXTT4=
EXTT5=
EXTT6=
EXTT7=
EXTT8=
EXTT9=
EXTT10=
EXTT11=
EXTT12=
EXTT13=
EXTT14=
EXTT15=
PLAYORDER=
